<svg width="551" height="216" viewBox="0 0 551 216" fill="none" xmlns="http://www.w3.org/2000/svg">
<rect x="257" y="0.5" width="8.72523" height="22.1894" fill="#FF8800"/>
<rect width="8.71519" height="22.1512" transform="matrix(0.809019 0.587783 -0.591532 0.806281 220.062 17.5)" fill="#FFE08B"/>
<rect width="23.5424" height="9.7413" transform="matrix(0.991648 0.128975 -0.130217 0.991485 36.1602 22.5125)" fill="#C6A8EC"/>
<rect width="23.5424" height="9.7413" transform="matrix(0.991648 0.128975 -0.130217 0.991485 454.385 128.447)" fill="#C6A8EC"/>
<rect width="23.5423" height="9.74133" transform="matrix(0.991347 0.131268 -0.132531 0.991179 213.419 92.5132)" fill="#88F3B5"/>
<rect width="23.5382" height="9.74307" transform="matrix(0.97294 0.23106 -0.233201 0.972429 335.175 99.022)" fill="#734DA2"/>
<rect x="104.593" y="33.9009" width="13.5726" height="18.3304" fill="#52D188"/>
<rect x="533.583" y="80.2092" width="13.5726" height="18.3304" fill="#52D188"/>
<rect width="15.8441" height="18.4613" transform="matrix(0.795097 -0.606482 0.610217 0.792234 179.575 55.1782)" fill="#FFC41F"/>
<rect width="15.8441" height="18.4613" transform="matrix(0.795097 -0.606482 0.610217 0.792234 476.384 70.0408)" fill="#FFC41F"/>
<rect width="12.2306" height="18.4613" transform="matrix(0.795097 -0.606482 0.610217 0.792234 164.873 137.25)" fill="#FF4756"/>
<rect width="11.8473" height="18.4613" transform="matrix(0.795097 -0.606482 0.610217 0.792234 369.258 39.1685)" fill="#FF4756"/>
<rect x="25.5811" y="98.5396" width="9.6947" height="22.1894" fill="#ECF2FA"/>
<rect x="380.406" y="65.0669" width="9.6947" height="22.1894" fill="#ECF2FA"/>
<rect width="8.19258" height="26.8166" transform="matrix(0.891142 -0.453725 0.457244 0.889341 128.319 113.418)" fill="#FFEEBE"/>
<rect width="9.25502" height="31.8679" transform="matrix(0.955031 0.296507 -0.299153 0.954205 55.2178 182.347)" fill="#FF6C78"/>
<rect width="9.25502" height="31.8679" transform="matrix(0.955031 0.296507 -0.299153 0.954205 402.543 102.398)" fill="#FF6C78"/>
<rect width="10.5792" height="26.8588" transform="matrix(0.97494 -0.222467 0.224536 0.974466 295.501 73.4187)" fill="#5595F4"/>
<rect width="10.5723" height="26.8764" transform="matrix(0.903891 0.427762 -0.431177 0.902268 149.628 52.2312)" fill="#9EC5FF"/>
<rect width="24.3366" height="6.31852" transform="matrix(0.994284 0.106771 -0.107805 0.994172 293.502 27.7104)" fill="#CBE0FF"/>
<rect x="88.5957" y="155.942" width="15.9963" height="18.3304" fill="#C6A8EC"/>
<rect x="407.067" y="143.883" width="15.9963" height="18.3304" fill="#C6A8EC"/>
<rect width="13.2249" height="25.8036" transform="matrix(0.982629 -0.185579 0.187334 0.982296 467.659 189.751)" fill="#5595F4"/>
<rect width="11.3622" height="22.1158" transform="matrix(0.989785 0.142565 -0.143933 0.989587 77.2373 74.9031)" fill="#C6FFDE"/>
<rect width="11.3622" height="22.1158" transform="matrix(0.989785 0.142565 -0.143933 0.989587 430.609 44.9956)" fill="#818286"/>
<rect width="11.3323" height="22.1745" transform="matrix(0.662493 -0.749068 0.752262 0.658864 526.312 28.4006)" fill="#C6FFDE"/>
<rect width="11.5085" height="22.1265" transform="matrix(0.938706 -0.344718 0.347689 0.93761 0.630859 158.21)" fill="#E4EAF3"/>
<rect width="11.5085" height="22.1265" transform="matrix(0.938706 -0.344718 0.347689 0.93761 521.949 171.969)" fill="#E4EAF3"/>
</svg>
