<svg width="32" height="32" viewBox="0 0 32 32" fill="none" xmlns="http://www.w3.org/2000/svg">
<rect width="32" height="32" rx="4" fill="#C6A8EC"/>
<g clip-path="url(#clip0_2378_99179)">
<path fill-rule="evenodd" clip-rule="evenodd" d="M26.3008 10.6582C26.5534 10.91 26.5534 11.3242 26.3008 11.576C26.0482 11.8276 25.6326 11.8276 25.3801 11.576C25.2596 11.4545 25.192 11.2905 25.192 11.1197C25.192 10.7636 25.4861 10.4706 25.8434 10.4706C26.0147 10.4706 26.1792 10.5379 26.3011 10.6577L26.3008 10.6582ZM22.3161 8.58335C22.8035 8.68063 23.2803 8.82558 23.7395 9.01606C24.0601 9.14897 24.2148 9.52266 24.0823 9.84397C23.9847 10.0804 23.7534 10.2353 23.4981 10.2353C23.415 10.2353 23.3328 10.2189 23.256 10.187H23.2549C22.8774 10.0303 22.4858 9.91058 22.0853 9.82953C22.0746 9.82767 22.0642 9.82557 22.0535 9.82325C21.663 9.74642 21.2661 9.70673 20.8681 9.70471H20.8356C19.933 9.70466 19.0962 9.2207 18.6447 8.43756C18.642 8.43267 18.6389 8.42755 18.6364 8.42243C18.2222 7.70788 17.6727 7.08127 17.0187 6.57796C14.2477 4.44738 10.2784 4.97103 8.15124 7.74775C8.03158 7.90416 7.84575 7.99603 7.64907 7.99603C7.30199 7.99603 7.01638 7.70986 7.01638 7.36209C7.01638 7.22268 7.06228 7.08707 7.14692 6.97643C7.15343 6.96804 7.16017 6.95989 7.16691 6.95174C7.77068 6.17029 8.5207 5.51417 9.37495 5.02017C13.0038 2.92034 17.6444 4.16605 19.7411 7.80225V7.80341L19.7464 7.81249C19.9681 8.1907 20.3707 8.42757 20.8084 8.43733H20.8365C21.3336 8.43731 21.8295 8.48621 22.317 8.58335H22.3161ZM6.60934 16.6875C6.61469 16.6773 6.62074 16.6671 6.62678 16.6571C6.84205 16.2725 6.84143 15.8022 6.62515 15.4183C6.61888 15.4078 6.61306 15.3974 6.60725 15.3869C5.60995 13.6475 5.34111 11.5821 5.85995 9.64539C5.93385 9.36966 6.18564 9.17647 6.47111 9.17647C6.81822 9.17647 7.10385 9.46208 7.10385 9.80919C7.10385 9.8645 7.0966 9.91956 7.08228 9.97299C6.64985 11.5876 6.87445 13.3095 7.70658 14.7591C7.71356 14.7708 7.7203 14.7826 7.72681 14.7947C8.16244 15.567 8.16165 16.5139 7.72472 17.2855C7.71658 17.3002 7.70821 17.3148 7.69891 17.329C7.29198 18.0422 7.02765 18.8277 6.92068 19.6418C6.46472 23.1061 8.90311 26.2828 12.3676 26.739V26.7404C12.6808 26.7816 12.9176 27.0515 12.9176 27.3674C12.9176 27.395 12.9157 27.4226 12.9121 27.45C12.8669 27.7936 12.5472 28.0394 12.2034 27.9948H12.2046C11.216 27.8644 10.2628 27.5405 9.39953 27.0415C5.77136 24.9489 4.52554 20.316 6.60934 16.6875ZM7.7012 17.4351C7.71749 17.421 7.73248 17.4061 7.74609 17.3905L7.74784 17.3885C7.7337 17.4047 7.71812 17.4203 7.7012 17.4351ZM15.1557 27.8604C14.8098 27.9525 14.4487 27.7459 14.3559 27.4025C14.2631 27.059 14.4716 26.7005 14.8177 26.6083C14.8704 26.595 14.9246 26.5882 14.979 26.5882C15.3373 26.5882 15.6321 26.8808 15.6321 27.2364C15.6321 27.5259 15.4367 27.782 15.1559 27.8604H15.1557ZM20.8878 23.5969C20.4414 23.5969 20.0267 23.8322 19.7982 24.215C19.7954 24.2204 19.7923 24.2257 19.7893 24.2309C19.5401 24.6617 19.249 25.0671 18.9204 25.4411C19.0258 25.321 19.026 25.3217 18.9204 25.4411C18.9139 25.4485 18.9074 25.4557 18.9006 25.4627C18.5771 25.8281 18.219 26.1615 17.8315 26.4583C17.5556 26.6699 17.1543 26.6174 16.9423 26.342C16.7306 26.0665 16.7832 25.6658 17.0589 25.4541C17.3884 25.2015 17.6923 24.9172 17.9662 24.6053C17.8646 24.7217 17.8644 24.7203 17.9662 24.6053C17.9741 24.5965 17.9821 24.5879 17.9895 24.5797C18.2492 24.2806 18.4801 23.9579 18.6794 23.6158C18.6832 23.6088 18.6871 23.602 18.6911 23.595C19.144 22.8136 19.9824 22.3308 20.8866 22.3308C21.7195 22.3308 22.5442 22.167 23.3136 21.8486C26.5428 20.513 28.0802 16.8216 26.754 13.5943C26.7512 13.5883 26.7484 13.582 26.7458 13.5757C26.7155 13.5005 26.6999 13.4202 26.6999 13.3391C26.6999 12.9917 26.9862 12.7059 27.3341 12.7059C27.5875 12.7059 27.8176 12.8576 27.9172 13.0902C28.2998 14.0125 28.4967 15.0011 28.4967 15.9994C28.4967 20.1962 25.0894 23.5985 20.8864 23.5985L20.8878 23.5969ZM20.2731 11.0348C20.4406 11.0166 20.6087 11.0065 20.7775 11.0046C20.7948 11.0045 20.8121 11.0044 20.8294 11.0044C23.6111 11.0044 25.9001 13.2854 25.9001 16.0574C25.9001 18.8294 23.6111 21.1104 20.8294 21.1104C20.6439 21.1104 20.4586 21.1003 20.2742 21.0801C19.2333 21.0004 18.2446 21.5689 17.7931 22.5069C16.9858 24.34 15.1584 25.5294 13.1496 25.5294C10.3677 25.5294 8.07859 23.2483 8.07859 20.4762C8.07859 19.3899 8.43009 18.332 9.08064 17.4604C9.65444 16.6023 9.64676 15.4767 9.0613 14.6264C9.00075 14.5439 8.94276 14.4598 8.88733 14.3741C8.36131 13.559 8.08155 12.6101 8.08155 11.641C8.08155 8.86915 10.3705 6.58824 13.1521 6.58824C15.1599 6.58824 16.9866 7.77664 17.7943 9.6084C18.2458 10.5455 19.2333 11.1137 20.2735 11.0348H20.2731ZM9.99593 22.4412C10.6702 23.6227 11.9204 24.3529 13.269 24.3529C15.3423 24.3529 17.0484 22.6269 17.0484 20.5294C17.0484 18.4319 15.3423 16.7059 13.269 16.7059C12.6056 16.7059 11.9537 16.8826 11.3792 17.2182C9.58393 18.2672 8.95958 20.6246 9.99593 22.4412ZM17.5494 17.9705C18.2236 19.1521 19.4739 19.8824 20.8225 19.8824C22.8958 19.8824 24.6019 18.1564 24.6019 16.0588C24.6019 13.9613 22.8958 12.2353 20.8225 12.2353C20.1591 12.2353 19.5073 12.412 18.9329 12.7475C17.1375 13.7964 16.5131 16.1539 17.5494 17.9705ZM13.2728 15.4118C15.3442 15.4111 17.0484 13.6853 17.0484 11.5882C17.0484 9.49072 15.3435 7.76471 13.2716 7.76471C11.1997 7.76471 9.49487 9.49072 9.49487 11.5882C9.49487 11.5885 9.49487 11.5887 9.49487 11.5889C9.49538 13.6862 11.2002 15.4118 13.2719 15.4118C13.2722 15.4118 13.2725 15.4118 13.2728 15.4118Z" fill="#55377B"/>
</g>
<defs>
<clipPath id="clip0_2378_99179">
<rect width="24" height="24" fill="white" transform="translate(5 4)"/>
</clipPath>
</defs>
</svg>
